<?xml version="1.0" encoding="utf-8"?>
<!-- Generator: Adobe Illustrator 18.0.0, SVG Export Plug-In . SVG Version: 6.00 Build 0)  -->
<!DOCTYPE svg PUBLIC "-//W3C//DTD SVG 1.1//EN" "http://www.w3.org/Graphics/SVG/1.1/DTD/svg11.dtd">
<svg id="レイヤー_1" data-name="レイヤー 1" xmlns="http://www.w3.org/2000/svg" xmlns:xlink="http://www.w3.org/1999/xlink" viewBox="0 0 774.39 774.38"><defs><style>.cls-1{fill:url(#linear-gradient);}.cls-2{fill:url(#ブルーグラデーション);}</style><linearGradient id="linear-gradient" x1="211.91" y1="521.82" x2="211.91" y2="1106.4" gradientTransform="translate(-225.19 73.99) rotate(-45)" gradientUnits="userSpaceOnUse"><stop offset="0" stop-color="#44b8cc"/><stop offset="0.12" stop-color="#29b4cc"/><stop offset="0.26" stop-color="#12b1cc"/><stop offset="0.39" stop-color="#05b0cc"/><stop offset="0.5" stop-color="#00afcc"/><stop offset="0.66" stop-color="#00acc9"/><stop offset="0.78" stop-color="#00a4bf"/><stop offset="0.89" stop-color="#0096ae"/><stop offset="0.99" stop-color="#008297"/><stop offset="1" stop-color="#007f94"/></linearGradient><linearGradient id="ブルーグラデーション" x1="-328.96" y1="967.5" x2="387.78" y2="967.5" gradientTransform="translate(1205.24 1163.14) rotate(135)" xlink:href="#linear-gradient"/></defs><path class="cls-1" d="M500.32,887a62.81,62.81,0,0,1-44.69-18.51l-324-324a63.18,63.18,0,0,1,0-89.36l324-324a63.18,63.18,0,0,1,89.36,0l324,324a63.19,63.19,0,0,1,0,89.37l-324,324A62.82,62.82,0,0,1,500.32,887Zm0-762.56a51.07,51.07,0,0,0-36.32,15l-324,324a51.35,51.35,0,0,0,0,72.64l324,324a51.36,51.36,0,0,0,72.63,0l324-324a51.37,51.37,0,0,0,0-72.64l-324-324A51.07,51.07,0,0,0,500.32,124.44Z" transform="translate(-113.12 -112.61)"/><rect class="cls-2" x="236.85" y="236.34" width="526.94" height="526.94" rx="34.37" transform="translate(-320 387.55) rotate(-45)"/></svg>